<svg xmlns="http://www.w3.org/2000/svg" viewBox="0 0 64 64">
  <rect width="64" height="64" rx="8" fill="#1c1c1c" />
  <rect x="3" y="3" width="58" height="58" rx="6" fill="none" stroke="#93ffd7" stroke-width="3" />
  <path d="M12.71533203125 32.0V20.22265625H15.93798828125H19.14599609375V21.27734375V22.361328125H17.00732421875H14.85400390625V32.0V41.638671875H17.00732421875H19.14599609375V42.7080078125V43.77734375H15.93798828125H12.71533203125Z M27.70068359375 27.72265625V26.6533203125H31.99267578125H36.28466796875V27.72265625V28.7919921875H37.35400390625H38.42333984375V29.861328125V30.9306640625H37.35400390625H36.28466796875V29.861328125V28.7919921875H31.99267578125H27.70068359375V34.138671875V39.5H31.99267578125H36.28466796875V38.4306640625V37.361328125H37.35400390625H38.42333984375V38.4306640625V39.5H37.35400390625H36.28466796875V40.5693359375V41.638671875H31.99267578125H27.70068359375V40.5693359375V39.5H26.63134765625H25.56201171875V34.138671875V28.7919921875H26.63134765625H27.70068359375Z M44.85400390625 21.27734375V20.22265625H48.06201171875H51.28466796875V32.0V43.77734375H48.06201171875H44.85400390625V42.7080078125V41.638671875H46.99267578125H49.13134765625V32.0V22.361328125H46.99267578125H44.85400390625Z" fill="#93ffd7" />
</svg>
