<svg version="1.2" xmlns="http://www.w3.org/2000/svg" viewBox="0 0 64 64" width="64" height="64">
	<style>
		.s0 { fill: #ffffff }
	</style>
	<rect id="Background" width="64" height="64" fill="#1c1c1c"/>
	<path id="[c]" class="s0" aria-label="[c]" d="m9.9 47.4v-15.6-15.5h5.2 5.2v1.7 1.7h-3.5-3.4v12.1 12.1h3.4 3.5v1.8 1.7h-5.2zm17.5-17.3v-1.7-1.7h7 6.9v1.7 1.7h-6.9zm0 5.2v5.2h-1.8-1.7v-5.2-5.2h1.7 1.8zm0 6.9v-1.7h6.9 6.9v1.7 1.7h-6.9-6.9zm16.5-22.4v-1.7-1.8h5.2 5.2v15.6 15.5h-5.2-5.2v-1.7-1.7h3.5 3.4v-12.1-12.1h-3.4z"/>
</svg>
