<svg xmlns="http://www.w3.org/2000/svg" viewBox="0 0 64 64" shape-rendering="crispEdges">
  <rect width="64" height="64" fill="#1c1c1c" />
  <path d="M2 2H62V62H2V2ZM6 6V58H58V6H6Z" fill="#93ffd7" fill-rule="evenodd" />
  <path d="M7.0 32.02739726027397V10.0H13.027397260273972H19.027397260273972V11.972602739726028V14.0H15.027397260273972H11.0V32.02739726027397V50.054794520547944H15.027397260273972H19.027397260273972V52.054794520547944V54.054794520547944H13.027397260273972H7.0Z M24.027397260273972 24.027397260273972V22.027397260273972H32.054794520547944H40.082191780821915V24.027397260273972V26.027397260273972H42.082191780821915H44.082191780821915V28.027397260273972V30.027397260273972H42.082191780821915H40.082191780821915V28.027397260273972V26.027397260273972H32.054794520547944H24.027397260273972V36.02739726027397V46.054794520547944H32.054794520547944H40.082191780821915V44.054794520547944V42.054794520547944H42.082191780821915H44.082191780821915V44.054794520547944V46.054794520547944H42.082191780821915H40.082191780821915V48.054794520547944V50.054794520547944H32.054794520547944H24.027397260273972V48.054794520547944V46.054794520547944H22.027397260273972H20.027397260273972V36.02739726027397V26.027397260273972H22.027397260273972H24.027397260273972Z M45.082191780821915 11.972602739726028V10.0H51.082191780821915H57.10958904109589V32.02739726027397V54.054794520547944H51.082191780821915H45.082191780821915V52.054794520547944V50.054794520547944H49.082191780821915H53.082191780821915V32.02739726027397V14.0H49.082191780821915H45.082191780821915Z" fill="#93ffd7" />
</svg>
